<svg width="500" height="500" viewBox="0 0 500 500" fill="none" xmlns="http://www.w3.org/2000/svg">
<g clip-path="url(#clip0_101_2)">
<mask id="mask0_101_2" style="mask-type:alpha" maskUnits="userSpaceOnUse" x="-207" y="-10" width="374" height="375">
<circle cx="-20.0789" cy="177.474" r="186.615" transform="rotate(-30 -20.0789 177.474)" fill="#D9D9D9"/>
</mask>
<g mask="url(#mask0_101_2)">
<circle cx="286.5" cy="259.622" r="266.358" transform="rotate(-30 286.5 259.622)" fill="black"/>
</g>
<mask id="mask1_101_2" style="mask-type:alpha" maskUnits="userSpaceOnUse" x="135" y="-207" width="374" height="374">
<circle cx="186.615" cy="186.615" r="186.615" transform="matrix(-0.866025 0.5 0.5 0.866025 390.399 -275)" fill="#D9D9D9"/>
</mask>
<g mask="url(#mask1_101_2)">
<circle cx="266.358" cy="266.358" r="266.358" transform="matrix(-0.866025 0.5 0.5 0.866025 337.439 -77.3519)" fill="black"/>
</g>
<mask id="mask2_101_2" style="mask-type:alpha" maskUnits="userSpaceOnUse" x="-10" y="332" width="374" height="374">
<circle cx="186.615" cy="186.615" r="186.615" transform="matrix(0.866025 -0.5 -0.5 -0.866025 108.982 774.244)" fill="#D9D9D9"/>
</mask>
<g mask="url(#mask2_101_2)">
<circle cx="266.358" cy="266.358" r="266.358" transform="matrix(0.866025 -0.5 -0.5 -0.866025 161.942 576.596)" fill="black"/>
</g>
<mask id="mask3_101_2" style="mask-type:alpha" maskUnits="userSpaceOnUse" x="332" y="135" width="375" height="374">
<circle cx="519.459" cy="321.77" r="186.615" transform="rotate(150 519.459 321.77)" fill="#D9D9D9"/>
</mask>
<g mask="url(#mask3_101_2)">
<circle cx="212.88" cy="239.623" r="266.358" transform="rotate(150 212.88 239.623)" fill="black"/>
</g>
</g>
<defs>
<clipPath id="clip0_101_2">
<rect width="500" height="500" fill="white"/>
</clipPath>
</defs>
</svg>
